<svg xmlns="http://www.w3.org/2000/svg" width="30" height="29" viewBox="0 0 30 29">
    <path fill="#C70000" d="M4.718 16.612c2.606 0 4.718 2.09 4.718 4.668 0 2.394-3.816 6.988-4.251 7.504a.61.61 0 01-.934 0C3.816 28.268 0 23.674 0 21.28c0-2.578 2.112-4.668 4.718-4.668zm0 1.202c-1.933.002-3.5 1.553-3.502 3.466 0 1.46 2.217 4.548 3.502 6.158 1.285-1.612 3.502-4.7 3.502-6.158-.002-1.913-1.569-3.463-3.502-3.466zm-.048 1.332c1.406 0 2.546 1.128 2.546 2.52-.003 1.389-1.141 2.515-2.546 2.518-1.406 0-2.546-1.128-2.546-2.519 0-1.391 1.14-2.52 2.546-2.52zm16.57 3.198c.303.001.553.22.6.505l.009.097c0 .3-.22.55-.51.597l-.098.008a.607.607 0 01-.609-.605c.001-.299.222-.546.51-.593l.099-.009zm1.825 0a.609.609 0 01.6.507l.008.095a.596.596 0 01-.512.595l-.096.007a.607.607 0 01-.609-.602c.001-.299.222-.546.51-.593l.099-.009zm-3.65 0a.61.61 0 01.602.507l.007.095a.597.597 0 01-.512.595l-.096.007a.607.607 0 01-.608-.602c0-.299.22-.546.51-.593l.098-.009zm-1.823 0a.609.609 0 01.6.507l.007.095a.596.596 0 01-.511.595l-.096.007a.607.607 0 01-.608-.602c0-.299.22-.546.51-.593l.098-.009zm-1.825 0a.61.61 0 01.601.507l.007.095a.597.597 0 01-.512.595l-.096.007a.607.607 0 01-.608-.602c0-.299.221-.546.51-.593l.098-.009zm-1.825 0a.609.609 0 01.601.507l.008.095a.596.596 0 01-.513.595l-.096.007a.606.606 0 01-.607-.602c0-.298.22-.546.509-.593l.098-.009zm-1.824 0c.302.001.553.22.6.505l.009.097a.606.606 0 01-.51.594l-.099.008a.607.607 0 01-.61-.602h.002c.001-.299.221-.546.51-.593l.098-.009zm-1.824 0a.61.61 0 01.6.507l.008.095a.597.597 0 01-.513.595l-.095.007a.607.607 0 01-.609-.602c.001-.299.221-.546.51-.593l.099-.009zm14.642-.353a.61.61 0 01.33.184l.06.075a.59.59 0 01-.171.83h.006a.59.59 0 01-.25.097l-.09.006a.6.6 0 01-.42-1.042l.075-.059c.135-.09.3-.122.46-.09zM4.67 20.341c-.737 0-1.334.591-1.334 1.32 0 .73.597 1.32 1.334 1.32.737 0 1.335-.59 1.335-1.32a1.33 1.33 0 00-1.335-1.32zm21.461.286l.093.035a.598.598 0 01.318.712l-.035.089a.604.604 0 01-.448.334l-.1.008a.703.703 0 01-.267-.056.614.614 0 01-.317-.715l.034-.092a.616.616 0 01.722-.315zm.28-1.752l.096.003c.16.016.308.095.41.22.08.099.127.22.134.346l-.003.096a.606.606 0 01-.5.526l-.101.01a.61.61 0 01-.476-.226.598.598 0 01-.135-.348l.002-.095a.596.596 0 01.223-.402c.1-.08.223-.125.35-.13zm.303-1.696a.603.603 0 01.23.295l.025.092a.591.591 0 01-.388.673l-.092.025-.058.01-.058.002a.605.605 0 01-.596-.487.593.593 0 01.388-.68l.093-.024a.614.614 0 01.456.094zm-.529-1.58l.06.078a.6.6 0 01-.115.772l-.08.058a.57.57 0 01-.237.088l-.085.005a.603.603 0 01-.516-.285v-.001a.6.6 0 01.114-.771l.08-.059a.62.62 0 01.78.115zm-1.653-1.376l.092.028c.279.112.43.405.368.688l-.028.094a.615.615 0 01-.474.371l-.092.008a.579.579 0 01-.226-.041l.002-.001a.602.602 0 01-.37-.691l.03-.091a.604.604 0 01.698-.365zm-5.589-.159a.614.614 0 01.602.512l.007.096a.606.606 0 01-.51.593l-.099.009a.607.607 0 01-.61-.601l.002-.001a.601.601 0 01.512-.6l.096-.008zm3.65 0a.614.614 0 01.6.512l.007.096a.606.606 0 01-.51.593l-.098.009a.606.606 0 01-.609-.601l.002-.001a.607.607 0 01.508-.6l.1-.008zm-1.825 0a.61.61 0 01.6.51l.009.098a.606.606 0 01-.51.593l-.099.009a.607.607 0 01-.61-.601l.002-.001a.601.601 0 01.512-.6l.096-.008zm-3.648 0a.61.61 0 01.6.51l.008.098a.606.606 0 01-.51.593l-.098.009a.614.614 0 01-.433-.175.6.6 0 01-.18-.426l.004-.001a.601.601 0 01.512-.6l.097-.008zm-1.825 0a.614.614 0 01.6.512l.008.096a.606.606 0 01-.51.593l-.098.009a.607.607 0 01-.61-.601l.001-.001a.601.601 0 01.513-.6l.096-.008zm-1.824 0a.61.61 0 01.6.51l.007.098c0 .298-.22.546-.509.593l-.098.009a.607.607 0 01-.61-.601l.002-.001a.601.601 0 01.512-.6l.096-.008zm-1.825 0a.614.614 0 01.601.512l.007.096a.606.606 0 01-.51.593l-.098.009a.607.607 0 01-.61-.601l.002-.001a.601.601 0 01.512-.6l.096-.008zm-1.825 0a.614.614 0 01.601.512l.007.096a.606.606 0 01-.51.593l-.098.009a.606.606 0 01-.61-.601l.003-.001a.607.607 0 01.508-.6l.1-.008zm-1.824 0a.61.61 0 01.6.51l.009.098a.606.606 0 01-.51.593l-.099.009a.607.607 0 01-.61-.601l.002-.001a.601.601 0 01.512-.6l.096-.008zm-1.825 0a.614.614 0 01.602.512l.007.096a.606.606 0 01-.51.593l-.099.009a.607.607 0 01-.605-.601l-.003-.001a.601.601 0 01.512-.6l.096-.008zm-1.508-.15h-.006a.597.597 0 01.305.719l-.037.087a.604.604 0 01-.445.323l-.097.008a.621.621 0 01-.275-.066h.002a.603.603 0 01-.305-.724l.037-.089a.613.613 0 01.821-.258zm-1.06-1.117l.056.081a.598.598 0 01-.15.764l-.081.055a.597.597 0 01-.194.07l-.104.008a.6.6 0 01-.53-.301v-.006a.597.597 0 01.15-.764l.082-.054a.613.613 0 01.772.147zM25.283 0C27.888 0 30 2.09 30 4.668c0 2.394-3.816 6.988-4.251 7.504a.61.61 0 01-.934 0c-.435-.516-4.251-5.11-4.251-7.504C20.564 2.09 22.676 0 25.282 0zM3.132 11.285l.024.096a.607.607 0 01-.416.663l-.096.023-.047.005H2.55a.605.605 0 01-.6-.504h.001a.609.609 0 01.409-.669l.096-.024c.3-.044.583.134.676.41zm22.15-10.081c-1.933.002-3.5 1.552-3.502 3.464 0 1.462 2.217 4.549 3.502 6.158 1.285-1.613 3.502-4.7 3.502-6.158-.002-1.913-1.569-3.462-3.502-3.464zM2.53 9.07l.096.006a.605.605 0 01.522.582l-.006.098a.606.606 0 01-.503.51l-.1.007a.607.607 0 01-.487-.24.595.595 0 01-.12-.35l.006-.096a.598.598 0 01.236-.397.61.61 0 01.356-.12zm.758-1.678l.091.038a.608.608 0 01.289.728l-.04.09a.611.611 0 01-.445.312l-.095.007a.605.605 0 01-.286-.075v.003a.608.608 0 01-.289-.728l.039-.09a.62.62 0 01.736-.285zM26.21 2.718a2.524 2.524 0 011.576 2.332c-.002 1.391-1.14 2.52-2.547 2.524a2.552 2.552 0 01-2.36-1.555 2.504 2.504 0 01.55-2.752 2.571 2.571 0 012.78-.55zM4.473 6.076a.607.607 0 01.312.205l.054.079a.604.604 0 01-.15.77l-.081.055a.665.665 0 01-.195.063l-.103.009a.599.599 0 01-.53-.31v.003a.594.594 0 01.152-.766l.08-.053a.612.612 0 01.461-.055zm14.384-.282a.61.61 0 01.6.507l.008.095a.597.597 0 01-.512.595l-.096.007a.608.608 0 01-.6-.507l-.009-.095c.001-.299.222-.546.51-.593l.099-.009zm-1.825 0a.609.609 0 01.6.507l.008.095a.597.597 0 01-.512.595l-.096.007a.61.61 0 01-.6-.507l-.008-.095c0-.299.22-.546.51-.593l.098-.009zm-1.824 0a.61.61 0 01.6.507l.008.095a.597.597 0 01-.512.595l-.096.007a.608.608 0 01-.6-.507l-.008-.095c0-.299.22-.546.51-.593l.098-.009zm-1.825 0a.61.61 0 01.606.504l.009.098a.608.608 0 01-.516.595l-.099.007a.61.61 0 01-.6-.507l-.008-.095c0-.299.221-.546.51-.593l.098-.009zm-1.824 0a.609.609 0 01.6.507l.008.095a.597.597 0 01-.512.595l-.096.007a.608.608 0 01-.6-.507l-.008-.095c0-.299.221-.546.51-.593l.098-.009zm-1.825 0a.61.61 0 01.601.507l.008.095a.597.597 0 01-.513.595l-.096.007a.608.608 0 01-.6-.507l-.008-.095c.001-.299.221-.546.51-.593l.098-.009zm-1.824 0a.609.609 0 01.6.507l.008.095a.597.597 0 01-.513.595l-.095.007a.608.608 0 01-.6-.507l-.008-.095c0-.298.22-.546.509-.593l.099-.009zm-1.824 0a.61.61 0 01.6.507l.008.095a.597.597 0 01-.513.595l-.095.007a.608.608 0 01-.6-.507l-.009-.095c.001-.299.221-.546.51-.593l.099-.009zM25.239 3.73c-.737 0-1.334.59-1.334 1.32 0 .729.597 1.32 1.334 1.32.737 0 1.335-.591 1.335-1.32a1.33 1.33 0 00-1.335-1.32z"/>
</svg>
