<svg xmlns="http://www.w3.org/2000/svg" width="51" height="50" viewBox="0 0 51 50">
    <path fill="#FFF" d="M8.02 28.64c4.43 0 8.022 3.604 8.022 8.05 0 4.127-6.488 12.047-7.228 12.937a1.032 1.032 0 01-1.587 0C6.487 48.737 0 40.817 0 36.689c0-4.445 3.591-8.048 8.02-8.048zm0 2.074c-3.286.004-5.95 2.677-5.953 5.975 0 2.52 3.769 7.843 5.954 10.618 2.183-2.78 5.953-8.103 5.953-10.618-.004-3.298-2.667-5.97-5.953-5.975zm-.08 2.296a4.336 4.336 0 014.328 4.344 4.347 4.347 0 01-4.329 4.343 4.336 4.336 0 01-4.329-4.343 4.336 4.336 0 014.33-4.344zm28.17 5.515c.532.001.97.405 1.027.925l.006.112c.001.536-.402.978-.92 1.036l-.114.007a1.04 1.04 0 01-.112-2.074l.112-.006zm3.1 0a1.028 1.028 0 011.026.9l.008.137a1.035 1.035 0 01-.898 1.03l-.136.008a1.04 1.04 0 01-1.034-1.038 1.04 1.04 0 01.921-1.03l.113-.007zm-6.203 0a1.03 1.03 0 011.026.9l.008.137a1.036 1.036 0 01-.898 1.03l-.136.008a1.04 1.04 0 01-1.034-1.038 1.04 1.04 0 01.922-1.03l.112-.007zm-3.1 0a1.027 1.027 0 011.024.9l.008.137a1.035 1.035 0 01-.897 1.03l-.136.008a1.04 1.04 0 01-1.034-1.038 1.04 1.04 0 01.922-1.03l.112-.007zm-3.103 0a1.03 1.03 0 011.026.9l.008.137a1.036 1.036 0 01-.898 1.03l-.136.008a1.04 1.04 0 01-1.034-1.038 1.04 1.04 0 01.922-1.03l.112-.007zm-3.102 0a1.028 1.028 0 011.026.9l.008.137a1.035 1.035 0 01-.898 1.03l-.136.008a1.037 1.037 0 01-.112-2.069l.112-.006zm-3.1 0c.532.001.97.405 1.027.925l.006.112a1.04 1.04 0 01-.921 1.032l-.113.006a1.04 1.04 0 01-1.037-1.038h.003a1.04 1.04 0 01.922-1.03l.112-.007zm-3.103 0a1.03 1.03 0 011.026.9l.008.137a1.036 1.036 0 01-.898 1.03l-.136.008a1.04 1.04 0 01-1.034-1.038 1.04 1.04 0 01.922-1.03l.112-.007zm24.893-.61c.232.047.44.172.59.353l.07.094a1.03 1.03 0 01-.29 1.432h.012a.995.995 0 01-.456.17l-.123.007a1.037 1.037 0 01-.68-1.827l.095-.071c.23-.155.51-.212.782-.157zM7.939 35.072a2.272 2.272 0 00-2.268 2.276 2.272 2.272 0 002.268 2.277 2.272 2.272 0 002.269-2.277 2.276 2.276 0 00-2.269-2.276zm36.53.507l.112.046a1.025 1.025 0 01.532 1.254l-.051.127c-.151.32-.454.538-.8.582l-.13.008a1.181 1.181 0 01-.456-.097 1.063 1.063 0 01-.525-1.279l.045-.112a1.042 1.042 0 011.273-.529zm.457-3.036l.136.006a1.03 1.03 0 01.926 1.004l-.006.137a1.038 1.038 0 01-.903.916l-.12.007a.412.412 0 01-.114-.008v-.001a1.033 1.033 0 01-.926-1.006l.006-.137a1.03 1.03 0 011.001-.918zm.489-2.923c.194.134.336.33.404.553l.028.114a1.03 1.03 0 01-.685 1.17l-.13.034-.099.018-.099.003c-.495 0-.92-.352-1.013-.84v-.002a1.034 1.034 0 01.704-1.185l.113-.028c.27-.051.55.008.777.163zm-.87-2.689l.071.099c.28.452.173 1.036-.232 1.361l-.098.07a.96.96 0 01-.432.156l-.117.005a1.022 1.022 0 01-.877-.492l-.001-.002a1.043 1.043 0 01.232-1.36l.098-.07a1.043 1.043 0 011.357.233zm-2.815-2.402l.13.042c.49.2.747.732.616 1.234l-.037.115a1.048 1.048 0 01-.837.644l-.125.009a.972.972 0 01-.385-.071l.003-.002a1.03 1.03 0 01-.621-1.218l.043-.13a1.034 1.034 0 011.213-.623zm-9.526-.28a1.037 1.037 0 011.026.91l.008.138a1.04 1.04 0 01-.922 1.031l-.112.007a1.04 1.04 0 01-1.037-1.036l.003-.002a1.044 1.044 0 01.897-1.038l.137-.01zm6.203 0a1.037 1.037 0 011.025.91l.009.138a1.04 1.04 0 01-.922 1.031l-.112.007c-.571 0-1.034-.464-1.036-1.036l.003-.002c-.002-.537.4-.98.92-1.04l.113-.007zm-3.1 0c.534.004.973.412 1.027.934l.006.114a1.04 1.04 0 01-.921 1.031l-.113.007a1.04 1.04 0 01-1.037-1.036l.003-.002a1.044 1.044 0 01.898-1.038l.136-.01zm-6.204 0c.535.004.974.412 1.029.934l.005.114a1.04 1.04 0 01-.921 1.031l-.113.007a1.036 1.036 0 01-1.042-1.036l.008-.002a1.044 1.044 0 01.898-1.038l.136-.01zm-3.102 0a1.037 1.037 0 011.026.91l.008.138a1.04 1.04 0 01-.921 1.031l-.113.007a1.04 1.04 0 01-1.037-1.036l.003-.002a1.044 1.044 0 01.897-1.038l.137-.01zm-3.1 0a1.04 1.04 0 011.026.935l.006.113c-.001.534-.403.974-.92 1.031l-.113.007a1.04 1.04 0 01-1.037-1.036l.003-.002a1.044 1.044 0 01.898-1.038l.136-.01zm-3.103 0a1.037 1.037 0 011.026.91l.008.138a1.04 1.04 0 01-.921 1.031l-.113.007a1.04 1.04 0 01-1.036-1.036l.002-.002a1.044 1.044 0 01.898-1.038l.136-.01zm-3.102 0a1.037 1.037 0 011.026.91l.008.138a1.04 1.04 0 01-.922 1.031l-.112.007c-.57 0-1.034-.464-1.036-1.036l.003-.002c-.002-.537.4-.98.92-1.04l.113-.007zm-3.1 0c.534.004.973.412 1.028.934l.005.114a1.04 1.04 0 01-.921 1.031l-.113.007a1.04 1.04 0 01-1.037-1.036l.003-.002a1.044 1.044 0 01.898-1.038l.136-.01zm-3.103 0a1.037 1.037 0 011.026.91l.008.138a1.04 1.04 0 01-.921 1.031l-.113.007a1.04 1.04 0 01-1.03-1.036l-.004-.002a1.044 1.044 0 01.898-1.038l.136-.01zM7.93 23.99h-.012a1.025 1.025 0 01.51 1.264l-.054.126c-.155.31-.454.52-.792.561l-.129.008c-.162 0-.323-.039-.468-.112l.003-.002a1.035 1.035 0 01-.51-1.274l.055-.126c.264-.51.888-.708 1.397-.445zm-1.773-1.888l.065.102a1.04 1.04 0 01-.291 1.345l-.102.066c-.115.067-.242.11-.374.127l-.132.008a1.016 1.016 0 01-.901-.52l.001-.01a1.038 1.038 0 01.292-1.345l.101-.065a1.032 1.032 0 011.34.292zM42.979 0C47.41 0 51 3.603 51 8.049c0 4.128-6.487 12.048-7.227 12.937a1.031 1.031 0 01-1.587 0c-.74-.89-7.228-8.81-7.228-12.937C34.958 3.603 38.55 0 42.98 0zM5.34 19.51l.024.112a1.047 1.047 0 01-.758 1.159l-.11.023-.08.01h-.08c-.507 0-.939-.367-1.02-.869l.001-.001a1.05 1.05 0 01.748-1.169l.11-.025c.53-.08 1.027.254 1.165.76zM42.98 2.076c-3.287.005-5.95 2.676-5.954 5.974 0 2.52 3.77 7.842 5.953 10.617 2.185-2.781 5.954-8.103 5.954-10.617-.004-3.298-2.667-5.97-5.954-5.974zM4.326 15.64l.136.01c.528.077.905.539.889 1.061l-.01.113a1.037 1.037 0 01-.907.884l-.118.007a1.029 1.029 0 01-1.034-1.046l.012-.136a1.034 1.034 0 011.032-.893zm1.307-2.877l.11.05c.466.256.662.815.475 1.3l-.05.111c-.161.302-.459.503-.793.543l-.127.007a1.017 1.017 0 01-.486-.13v.005a1.054 1.054 0 01-.475-1.3l.05-.111a1.047 1.047 0 011.296-.475zm38.923-8.077a4.352 4.352 0 012.679 4.022 4.35 4.35 0 01-4.329 4.351 4.337 4.337 0 01-4.012-2.68 4.363 4.363 0 01.935-4.746 4.326 4.326 0 014.727-.947zm-36.952 5.79c.226.064.422.202.558.392l.063.098c.26.466.127 1.047-.291 1.356l-.102.066c-.117.06-.244.1-.375.116l-.131.008a1.016 1.016 0 01-.9-.534v.005a1.038 1.038 0 01.295-1.348l.098-.063c.239-.135.52-.17.785-.096zm24.451-.485a1.03 1.03 0 011.026.901l.008.137a1.036 1.036 0 01-.898 1.029l-.136.009a1.039 1.039 0 01-1.028-.93l-.006-.108a1.04 1.04 0 01.922-1.031l.112-.007zm-3.102 0a1.028 1.028 0 011.026.901l.008.137a1.036 1.036 0 01-.898 1.029l-.136.009a1.04 1.04 0 01-1.028-.93l-.006-.108a1.04 1.04 0 01.922-1.031l.112-.007zm-3.1 0a1.03 1.03 0 011.025.901l.009.137a1.036 1.036 0 01-.898 1.029l-.136.009a1.039 1.039 0 01-1.029-.93l-.006-.108a1.04 1.04 0 01.922-1.031l.113-.007zm-3.103 0c.536-.002.98.402 1.039.924l.007.114a1.043 1.043 0 01-.932 1.032l-.114.006a1.04 1.04 0 01-1.028-.93l-.006-.108a1.04 1.04 0 01.922-1.031l.112-.007zm-3.1 0a1.027 1.027 0 011.024.902l.008.136a1.036 1.036 0 01-.896 1.029l-.136.009a1.039 1.039 0 01-1.029-.93l-.005-.108a1.04 1.04 0 01.921-1.031l.113-.007zm-3.103 0a1.03 1.03 0 011.026.901l.009.137a1.036 1.036 0 01-.899 1.029l-.136.009a1.039 1.039 0 01-1.028-.93l-.006-.108a1.04 1.04 0 01.922-1.031l.112-.007zm-3.102 0a1.028 1.028 0 011.026.901l.008.137a1.036 1.036 0 01-.898 1.029l-.136.009a1.039 1.039 0 01-1.026-.93l-.006-.108c0-.534.403-.974.92-1.031l.112-.007zm-3.1 0a1.03 1.03 0 011.025.901l.009.137a1.036 1.036 0 01-.898 1.029l-.136.009a1.039 1.039 0 01-1.029-.93l-.006-.108a1.04 1.04 0 01.922-1.031l.113-.007zm32.561-3.56a2.272 2.272 0 00-2.269 2.277 2.272 2.272 0 002.269 2.276 2.272 2.272 0 002.269-2.276 2.276 2.276 0 00-2.269-2.277z"/>
</svg>
