<svg xmlns="http://www.w3.org/2000/svg" width="43" height="51" viewBox="0 0 43 51">
    <path fill="#FFF" d="M26.163 37.477c.227 0 .444.09.605.25.16.159.25.375.25.6v11.83a.853.853 0 01-.855.843H21.6a.853.853 0 01-.855-.85V38.327c0-.225.09-.441.25-.6a.858.858 0 01.605-.25h4.563zm7.994-3.017c.473 0 .856.38.856.85v14.846a.853.853 0 01-.859.844h-4.562a.853.853 0 01-.852-.844V35.31c0-.47.383-.85.855-.85h4.562zm7.988-4.434c.226 0 .444.09.604.249.16.16.251.376.251.6v19.281a.853.853 0 01-.855.844h-4.563a.853.853 0 01-.855-.85V30.876c0-.225.09-.442.25-.601a.858.858 0 01.605-.249h4.563zm-34.59 1.628c.473 0 .856.381.856.851v16.016c0 .47-.383.85-.855.85a.853.853 0 01-.856-.85V32.505c0-.47.383-.85.856-.851zm18.546-10.789c3.756.006 6.937 2.752 7.467 6.446a18.432 18.432 0 00-1.773-.233c-.608-2.637-2.967-4.508-5.69-4.513H7.55c-3.223.004-5.834 2.597-5.84 5.798v20.158c0 .47-.382.85-.855.85A.853.853 0 010 48.52V28.365c.004-4.14 3.382-7.496 7.55-7.5zm-.794 18.309h-2.851V49.3h2.851V39.174zm7.992-3.015h-2.852V49.3H33.3V36.16zm7.99-4.433h-2.851V49.3h2.851V31.726zM16.83 0c5.064 0 9.17 4.078 9.17 9.11 0 5.03-4.106 9.11-9.17 9.11-5.063-.007-9.165-4.082-9.171-9.11 0-5.032 4.105-9.11 9.17-9.11zm0 1.7c-4.119.004-7.456 3.32-7.46 7.41 0 4.092 3.34 7.41 7.46 7.41s7.459-3.318 7.459-7.41c0-4.093-3.34-7.41-7.46-7.41z"/>
</svg>
