<svg xmlns="http://www.w3.org/2000/svg" width="22" height="26" viewBox="0 0 22 26">
    <path fill="#C70000" stroke="#C70000" stroke-width=".23" d="M13.169 18.636a.397.397 0 01.398.4v5.567a.399.399 0 01-.398.397h-2.122a.399.399 0 01-.398-.4v-5.564a.4.4 0 01.398-.4h2.122zm3.718-1.42c.22 0 .398.18.398.4v6.987a.399.399 0 01-.4.397h-2.121a.399.399 0 01-.397-.397v-6.987c0-.22.178-.4.398-.4h2.122zm3.715-2.086a.397.397 0 01.398.4v9.073a.399.399 0 01-.398.397H18.48a.399.399 0 01-.398-.4v-9.07a.4.4 0 01.398-.4h2.122zm-16.088.766a.4.4 0 01.398.4h0v7.537a.399.399 0 11-.796 0h0v-7.537a.4.4 0 01.398-.4zm8.626-5.077a3.52 3.52 0 013.473 3.033 8.479 8.479 0 00-.825-.11 2.723 2.723 0 00-2.646-2.123h0-8.63a2.726 2.726 0 00-2.716 2.728h0v9.486a.399.399 0 11-.796 0h0v-9.485a3.524 3.524 0 013.512-3.53h0zm-.37 8.616h-1.325V24.2h1.326v-4.765zm3.718-1.419h-1.326V24.2h1.326v-6.184zm3.716-2.086h-1.326v8.27h1.326v-8.27zM8.827 1c2.356 0 4.265 1.92 4.265 4.287s-1.91 4.287-4.265 4.287c-2.354-.003-4.262-1.92-4.265-4.287C4.562 2.919 6.472 1 8.827 1zm0 .8a3.483 3.483 0 00-3.47 3.487 3.478 3.478 0 003.47 3.487 3.478 3.478 0 003.47-3.487A3.478 3.478 0 008.827 1.8z"/>
</svg>
