<svg xmlns="http://www.w3.org/2000/svg" width="40" height="43" viewBox="0 0 40 43">
    <path fill="#FFF" d="M20 0a20.2 20.2 0 011.961.098v30.056h2.285v-5.93h1.81l5.032 5.93h2.901L27.961 23.1l5.945-6.294h-2.888l-4.95 5.34h-1.822V3.368C33.252 5.321 40 13.347 40 22.957 40 34.025 31.046 43 20 43a19.872 19.872 0 01-10.98-3.291V28.073c1.038 1.25 2.595 2.066 4.697 2.066 3.73 0 6.659-2.923 6.659-6.956 0-4.031-2.93-6.954-6.66-6.954-2.101 0-3.658.815-4.695 2.065V16.51H6.736v18.525C2.606 31.363 0 26.01 0 20.043 0 8.973 8.954 0 20 0zm-6.549 18.393c2.72 0 4.57 2.135 4.57 4.79 0 2.656-1.808 4.806-4.57 4.806-2.692 0-4.57-2.066-4.57-4.806 0-2.725 1.878-4.79 4.57-4.79z"/>
</svg>
