<svg xmlns="http://www.w3.org/2000/svg" width="32" height="24" viewBox="0 0 32 24">
    <path fill="#C70000" stroke="#C70000" stroke-width=".5" d="M25.883 1c.851 0 1.542.682 1.543 1.524 0 .842-.69 1.525-1.542 1.526-.352 0-.677-.117-.937-.314l-2.029 2.006a9.092 9.092 0 012.537 6.131h2.897a1.537 1.537 0 011.527-1.312c.85 0 1.541.683 1.541 1.525 0 .843-.69 1.525-1.542 1.526-.78 0-1.425-.574-1.527-1.318l-2.899-.001v.022a9.095 9.095 0 01-2.578 6.065l2.108 2.086c.43-.306.994-.376 1.493-.17.576.236.952.793.95 1.41a1.535 1.535 0 01-1.54 1.524 1.543 1.543 0 01-1.426-.942 1.513 1.513 0 01.217-1.533l-2.102-2.08a9.247 9.247 0 01-3.324 2.002.303.303 0 01-.097.014.29.29 0 01-.097-.567c3.478-1.197 5.81-4.442 5.81-8.087 0-3.644-2.332-6.889-5.81-8.087a.29.29 0 01-.101-.5.297.297 0 01.295-.05 9.246 9.246 0 013.37 2.045l2.029-2.007a1.508 1.508 0 01-.306-.912c0-.843.689-1.525 1.54-1.526zM6.547 1c.85 0 1.541.682 1.542 1.524 0 .345-.116.664-.312.92l2.022 2a9.246 9.246 0 013.37-2.046.296.296 0 01.369.182.291.291 0 01-.174.369c-3.48 1.198-5.81 4.443-5.81 8.087s2.33 6.89 5.81 8.087a.29.29 0 01-.097.567v.001a.306.306 0 01-.097-.015 9.247 9.247 0 01-3.323-2L7.75 20.748c.215.266.34.602.34.957a1.535 1.535 0 01-1.542 1.524 1.543 1.543 0 01-1.426-.942 1.514 1.514 0 01.335-1.663 1.555 1.555 0 011.984-.164l2.105-2.081a9.095 9.095 0 01-2.58-6.087H4.07a1.538 1.538 0 01-1.527 1.319A1.533 1.533 0 011 12.086c0-.842.69-1.525 1.542-1.525.778 0 1.421.57 1.526 1.312h2.896l.003-.114a9.094 9.094 0 012.532-6.016L7.476 3.74c-.258.194-.58.309-.928.31a1.533 1.533 0 01-1.542-1.525c0-.843.69-1.525 1.54-1.526zm19.337 19.763a.947.947 0 00-.952.941c0 .52.425.943.951.943s.953-.42.953-.94c0-.25-.1-.49-.278-.668a.958.958 0 00-.674-.276zm-19.336 0a.947.947 0 00-.953.941c0 .52.426.943.952.943.525 0 .952-.42.953-.94 0-.25-.1-.49-.279-.668a.958.958 0 00-.673-.276zm11.964-10.23a1.949 1.949 0 011.956 1.936v4.98a.297.297 0 01-.504.206.29.29 0 01-.086-.206v-4.98c0-.747-.612-1.351-1.366-1.353h-4.607a1.361 1.361 0 00-1.366 1.353v4.98a.291.291 0 01-.143.265.298.298 0 01-.304 0 .291.291 0 01-.143-.265v-4.98a1.948 1.948 0 011.956-1.936h4.607zm-4.451 2.694a.291.291 0 01.143.265v3.958a.29.29 0 01-.087.206.296.296 0 01-.502-.206v-3.958a.291.291 0 01.143-.265.298.298 0 01.303 0zm4.45-.027c.162 0 .294.13.294.292v3.958a.29.29 0 01-.086.206.296.296 0 01-.504-.206v-3.958c0-.161.132-.292.295-.292zM2.54 11.142v.002a.947.947 0 00-.952.942c0 .52.427.943.953.943a.947.947 0 00.952-.943c0-.25-.1-.49-.278-.667a.958.958 0 00-.674-.277zm27.337 0v.002a.947.947 0 00-.953.942c0 .52.427.943.953.943a.947.947 0 00.952-.943c0-.25-.1-.49-.278-.667a.959.959 0 00-.674-.277zM16.21 5.378c1.302 0 2.357 1.044 2.357 2.332-.001 1.288-1.056 2.332-2.357 2.333-1.303 0-2.358-1.044-2.358-2.333 0-1.288 1.055-2.332 2.358-2.332zm0 .583h0a1.76 1.76 0 00-1.769 1.75c0 .966.792 1.75 1.769 1.75a1.76 1.76 0 001.768-1.75c0-.966-.792-1.749-1.768-1.75zm9.674-4.378a.952.952 0 00-.88.582.935.935 0 00.207 1.027.96.96 0 001.039.203.942.942 0 00.586-.871.948.948 0 00-.952-.941zm-19.336 0a.952.952 0 00-.88.582.935.935 0 00.207 1.027.96.96 0 001.038.203.942.942 0 00.587-.871.948.948 0 00-.952-.941z"/>
</svg>
