<svg xmlns="http://www.w3.org/2000/svg" width="72" height="53" viewBox="0 0 72 53">
    <path fill="#FFF" stroke="#FFF" stroke-width=".56" d="M58.26 1c1.958-.001 3.547 1.564 3.549 3.496 0 1.933-1.588 3.5-3.548 3.502-.81 0-1.557-.268-2.154-.72l-4.67 4.6c3.583 3.728 5.74 8.71 5.838 14.067h6.665c.24-1.7 1.722-3.01 3.513-3.01 1.96 0 3.547 1.567 3.547 3.5-.002 1.932-1.59 3.497-3.549 3.498-1.795 0-3.277-1.316-3.513-3.022H57.27c-.15 5.327-2.338 10.272-5.935 13.962l4.852 4.785a3.59 3.59 0 013.434-.391 3.5 3.5 0 012.188 3.237c-.004 1.93-1.59 3.494-3.548 3.496a3.55 3.55 0 01-3.28-2.16 3.462 3.462 0 01.501-3.52l-4.838-4.77a21.291 21.291 0 01-7.65 4.593.698.698 0 01-.223.033.675.675 0 01-.672-.557.667.667 0 01.45-.743c8.004-2.749 13.368-10.194 13.368-18.554 0-8.36-5.364-15.805-13.369-18.554a.664.664 0 01-.233-1.149.686.686 0 01.68-.115 21.289 21.289 0 017.755 4.693l4.67-4.604a3.452 3.452 0 01-.706-2.093c0-1.932 1.587-3.499 3.545-3.5zM13.762 1c1.96-.001 3.548 1.564 3.55 3.496 0 .793-.268 1.524-.719 2.111l4.653 4.588a21.289 21.289 0 017.757-4.694c.35-.11.726.075.847.418a.667.667 0 01-.4.846c-8.006 2.75-13.37 10.194-13.37 18.554 0 8.36 5.364 15.805 13.37 18.554.313.106.503.42.448.743a.675.675 0 01-.672.557v.003a.706.706 0 01-.223-.036 21.292 21.292 0 01-7.646-4.59l-4.825 4.76c.495.61.781 1.38.78 2.194-.004 1.93-1.59 3.493-3.547 3.496a3.55 3.55 0 01-3.28-2.16 3.466 3.466 0 01.77-3.817 3.585 3.585 0 014.566-.375l4.842-4.777c-3.597-3.69-5.784-8.633-5.935-13.96H8.062c-.237 1.706-1.72 3.02-3.515 3.022C2.588 29.933 1 28.367 1 26.434c0-1.932 1.588-3.498 3.547-3.498 1.791 0 3.272 1.308 3.513 3.01l6.664-.001v-.018c.101-5.349 2.256-10.323 5.834-14.046l-4.655-4.592a3.569 3.569 0 01-2.137.709c-1.96 0-3.547-1.566-3.548-3.498 0-1.932 1.587-3.499 3.545-3.5zm44.498 45.34c-1.21 0-2.19.967-2.191 2.16 0 1.193.98 2.161 2.19 2.163 1.21 0 2.191-.965 2.193-2.159 0-.573-.23-1.124-.641-1.53a2.208 2.208 0 00-1.55-.634zm-44.495 0c-1.21 0-2.191.967-2.192 2.16 0 1.193.98 2.161 2.19 2.163 1.21 0 2.191-.965 2.193-2.159 0-.573-.23-1.124-.641-1.53a2.208 2.208 0 00-1.55-.634zm27.53-23.468c2.485.003 4.499 1.989 4.502 4.44v11.426c0 .37-.304.67-.679.67a.684.684 0 01-.48-.196.665.665 0 01-.199-.474V27.312c-.001-1.713-1.408-3.1-3.143-3.103H30.696c-1.736.003-3.143 1.39-3.144 3.103v11.426a.667.667 0 01-.33.607.687.687 0 01-.697 0 .667.667 0 01-.33-.607V27.312c.003-2.45 2.016-4.437 4.5-4.44h10.602zm-10.241 6.18c.214.127.34.36.329.607v9.08a.663.663 0 01-.2.474.682.682 0 01-.479.195.68.68 0 01-.48-.196.662.662 0 01-.197-.472v-9.081a.667.667 0 01.329-.607.687.687 0 01.698 0zm10.238-.063c.375 0 .68.3.68.67v9.08a.663.663 0 01-.2.474.682.682 0 01-.48.195.682.682 0 01-.48-.195.663.663 0 01-.198-.473v-9.081c0-.37.304-.67.678-.67zM4.547 24.267v.006c-1.21 0-2.191.968-2.191 2.161 0 1.194.981 2.162 2.191 2.162s2.192-.968 2.192-2.162a2.148 2.148 0 00-.64-1.531 2.208 2.208 0 00-1.552-.636zm62.904 0v.006c-1.21 0-2.191.968-2.191 2.161 0 1.194.98 2.162 2.191 2.162 1.21 0 2.191-.968 2.191-2.162a2.15 2.15 0 00-.64-1.531 2.21 2.21 0 00-1.551-.636zM35.999 11.044c2.997 0 5.426 2.396 5.426 5.351-.004 2.954-2.43 5.348-5.426 5.351-2.996 0-5.425-2.395-5.425-5.35 0-2.956 2.429-5.352 5.425-5.352zm0 1.337v.002c-2.247 0-4.07 1.797-4.07 4.014 0 2.217 1.823 4.014 4.07 4.014 2.248 0 4.07-1.797 4.07-4.014-.002-2.217-1.823-4.013-4.07-4.016zM58.261 2.337c-.886 0-1.686.527-2.025 1.335a2.14 2.14 0 00.477 2.356c.627.618 1.57.802 2.39.467a2.161 2.161 0 001.35-2c-.003-1.191-.983-2.157-2.192-2.158zm-44.495 0c-.887 0-1.686.527-2.025 1.335a2.14 2.14 0 00.476 2.356c.627.618 1.57.802 2.39.467a2.161 2.161 0 001.35-2c-.003-1.191-.983-2.157-2.191-2.158z"/>
</svg>
